HIERARCHY
ROOT Hips
{
	OFFSET 0.000000 0.000000 0.000000
	CHANNELS 6 Xposition Yposition Zposition Zrotation Yrotation Xrotation 
	JOINT LHipJoint
	{
		OFFSET 0.000000 0.000000 0.000000
		CHANNELS 3 Zrotation Yrotation Xrotation
		JOINT LeftUpLeg
		{
			OFFSET 1.363060 -1.794630 0.839290
			CHANNELS 3 Zrotation Yrotation Xrotation
			JOINT LeftLeg
			{
				OFFSET 2.448110 -6.726130 0.000000
				CHANNELS 3 Zrotation Yrotation Xrotation
				JOINT LeftFoot
				{
					OFFSET 2.562200 -7.039590 0.000000
					CHANNELS 3 Zrotation Yrotation Xrotation
					JOINT LeftToeBase
					{
						OFFSET 0.157640 -0.433110 2.322550
						CHANNELS 3 Zrotation Yrotation Xrotation
						End Site
						{
							OFFSET 0.000000 0.000000 0.000000
						}
					}
				}
			}
		}
	}
	JOINT RHipJoint
	{
		OFFSET 0.000000 0.000000 0.000000
		CHANNELS 3 Zrotation Yrotation Xrotation
		JOINT RightUpLeg
		{
			OFFSET -1.305520 -1.794630 0.839290
			CHANNELS 3 Zrotation Yrotation Xrotation
			JOINT RightLeg
			{
				OFFSET -2.542530 -6.985550 0.000000
				CHANNELS 3 Zrotation Yrotation Xrotation
				JOINT RightFoot
				{
					OFFSET -2.568260 -7.056230 0.000000
					CHANNELS 3 Zrotation Yrotation Xrotation
					JOINT RightToeBase
					{
						OFFSET -0.164730 -0.452590 2.363150
						CHANNELS 3 Zrotation Yrotation Xrotation
						End Site
						{
							OFFSET 0.000000 0.000000 0.000000
						}
					}
				}
			}
		}
	}
	JOINT LowerBack
	{
		OFFSET 0.000000 0.000000 0.000000
		CHANNELS 3 Zrotation Yrotation Xrotation
		JOINT Spine
		{
			OFFSET 0.028270 2.035590 -0.193380
			CHANNELS 3 Zrotation Yrotation Xrotation
			JOINT Spine1
			{
				OFFSET 0.056720 2.048850 -0.042750
				CHANNELS 3 Zrotation Yrotation Xrotation
				JOINT Neck
				{
					OFFSET 0.000000 0.000000 0.000000
					CHANNELS 3 Zrotation Yrotation Xrotation
					JOINT Neck1
					{
						OFFSET -0.054170 1.746240 0.172020
						CHANNELS 3 Zrotation Yrotation Xrotation
						JOINT Head
						{
							OFFSET 0.104070 1.761360 -0.123970
							CHANNELS 3 Zrotation Yrotation Xrotation
							End Site
							{
								OFFSET 0.000000 0.000000 0.000000
							}
						}
					}
				}
				JOINT LeftShoulder
				{
					OFFSET 0.000000 0.000000 0.000000
					CHANNELS 3 Zrotation Yrotation Xrotation
					JOINT LeftArm
					{
						OFFSET 3.362410 1.200890 -0.311210
						CHANNELS 3 Zrotation Yrotation Xrotation
						JOINT LeftForeArm
						{
							OFFSET 4.983000 -0.000000 -0.000000
							CHANNELS 3 Zrotation Yrotation Xrotation
							JOINT LeftHand
							{
								OFFSET 3.483560 -0.000000 -0.000000
								CHANNELS 3 Zrotation Yrotation Xrotation
								JOINT LeftFingerBase
								{
									OFFSET 0.000000 0.000000 0.000000
									CHANNELS 3 Zrotation Yrotation Xrotation
									JOINT LeftHandIndex1
									{
										OFFSET 0.715260 -0.000000 -0.000000
										CHANNELS 3 Zrotation Yrotation Xrotation
										End Site
										{
											OFFSET 0.000000 0.000000 0.000000
										}
									}
								}
								JOINT LThumb
								{
									OFFSET 0.000000 0.000000 0.000000
									CHANNELS 3 Zrotation Yrotation Xrotation
									End Site
									{
										OFFSET 0.000000 0.000000 0.000000
									}
								}
							}
						}
					}
				}
				JOINT RightShoulder
				{
					OFFSET 0.000000 0.000000 0.000000
					CHANNELS 3 Zrotation Yrotation Xrotation
					JOINT RightArm
					{
						OFFSET -3.136600 1.374050 -0.404650
						CHANNELS 3 Zrotation Yrotation Xrotation
						JOINT RightForeArm
						{
							OFFSET -5.241900 -0.000000 -0.000000
							CHANNELS 3 Zrotation Yrotation Xrotation
							JOINT RightHand
							{
								OFFSET -3.444170 -0.000000 -0.000000
								CHANNELS 3 Zrotation Yrotation Xrotation
								JOINT RightFingerBase
								{
									OFFSET 0.000000 0.000000 0.000000
									CHANNELS 3 Zrotation Yrotation Xrotation
									JOINT RightHandIndex1
									{
										OFFSET -0.622530 -0.000000 -0.000000
										CHANNELS 3 Zrotation Yrotation Xrotation
										End Site
										{
											OFFSET 0.000000 0.000000 0.000000
										}
									}
								}
								JOINT RThumb
								{
									OFFSET 0.000000 0.000000 0.000000
									CHANNELS 3 Zrotation Yrotation Xrotation
									End Site
									{
										OFFSET 0.000000 0.000000 0.000000
									}
								}
							}
						}
					}
				}
			}
		}
	}
}
MOTION
Frames: 7
Frame Time: 0.008333
3.955829 17.126141 1.873633 12.695537 -23.747077 0.299598 -7.233073 0.253430 10.352854 -13.942016 -37.236147 -11.725040 -4.202970 -0.784629 0.624958 -1.111625 -7.688400 10.336794 -1.606500 0.000000 -41.564600 11.871162 -0.330040 -5.849886 -11.177977 -41.409241 4.358735 0.356900 0.426596 4.094270 -5.792278 -33.990848 -0.103704 -6.844101 -0.000000 -44.645100 -3.943298 1.380472 -6.061768 -1.003767 1.742163 -4.367152 -2.516436 1.627359 -2.313122 -1.723343 1.877442 2.076162 -2.517370 -0.310000 2.680690 0.000000 0.000000 0.000000 7.004260 8.192063 -8.724078 -99.315564 -59.209706 59.331266 179.799628 -75.666067 179.898041 8.397283 -2.077091 -0.211601 -0.180658 0.761485 -0.000000 0.000000 0.000000 0.000000 0.000000 0.000000 0.000000 -1.703190 8.122784 3.635972 24.155426 1.848064 -37.152740 -0.426536 52.376027 -0.158182 -21.207169 3.849018 -0.818834 0.218008 -0.483249 -0.000000 0.000000 0.000000 0.000000 0.000000 0.000000 0.000000 
3.965971 17.127073 1.865763 12.915076 -24.022540 0.132867 -7.342384 0.199097 10.312914 -14.073961 -37.105632 -11.579544 -4.205152 -0.800471 0.440613 -1.100444 -7.524688 10.443500 -1.570200 -0.000000 -41.239001 11.780617 -0.328347 -5.802505 -11.252813 -41.101744 4.296076 0.333750 0.399632 4.160931 -5.797679 -33.918514 -0.149556 -6.802500 0.000000 -44.747900 -3.547575 1.507912 -6.098708 -0.875494 1.842583 -4.267590 -2.256478 1.739298 -1.948638 -2.921256 2.687404 1.794201 -2.363794 -0.296334 2.599136 0.000000 0.000000 0.000000 6.140363 9.142421 -8.412680 -97.646400 -59.123645 57.641225 179.771684 -75.124860 179.897612 8.585375 -1.843580 -0.197138 -0.184281 0.740360 -0.000000 0.000000 0.000000 0.000000 0.000000 0.000000 0.000000 -3.199256 8.751020 3.737997 20.150779 5.658267 -40.649295 -0.704156 43.919425 -0.156184 -20.265703 4.382179 -0.882642 0.219572 -0.504365 -0.000000 0.000000 0.000000 0.000000 0.000000 0.000000 0.000000 
3.974845 17.129367 1.856818 13.144860 -24.356799 -0.003359 -7.460241 0.138176 10.240109 -14.193927 -36.900675 -11.463064 -4.206344 -0.819645 0.253162 -1.091376 -7.375947 10.561187 -1.537600 -0.000000 -40.899599 11.690553 -0.326604 -5.761100 -11.293444 -40.764467 4.182120 0.316617 0.370284 4.205949 -5.799288 -33.814217 -0.192038 -6.755600 0.000000 -44.852900 -3.149359 1.668652 -6.072148 -0.744815 1.975969 -4.172237 -1.993604 1.880661 -1.666839 -4.164646 3.436878 1.486223 -2.196484 -0.281569 2.512064 0.000000 0.000000 0.000000 5.288590 9.999075 -8.196648 -96.428655 -58.851918 56.183247 179.721357 -74.591106 179.896883 8.790000 -1.661440 -0.186167 -0.185521 0.721368 -0.000000 0.000000 0.000000 0.000000 0.000000 0.000000 0.000000 -4.858839 9.349240 3.891615 16.313976 9.054612 -44.770256 -1.004815 35.373648 -0.153578 -19.499887 4.990379 -0.959346 0.232223 -0.525183 -0.000000 0.000000 0.000000 0.000000 0.000000 0.000000 0.000000 
3.981326 17.133009 1.846874 13.373125 -24.709257 -0.103212 -7.577597 0.074303 10.142995 -14.296359 -36.641530 -11.380344 -4.207885 -0.841204 0.067347 -1.085899 -7.258925 10.693866 -1.514100 0.000000 -40.571800 11.607653 -0.326229 -5.727883 -11.301984 -40.431832 4.033294 0.306624 0.341791 4.214365 -5.797186 -33.688382 -0.228877 -6.706900 -0.000001 -44.924100 -2.776496 1.853762 -5.990612 -0.614121 2.136071 -4.083795 -1.712250 2.044571 -1.463391 -5.435673 4.080556 1.161517 -2.013068 -0.265697 2.422605 0.000000 0.000000 0.000000 4.465181 10.745370 -8.077702 -95.667810 -58.416364 54.990165 179.648787 -74.061766 179.896192 8.986021 -1.539077 -0.179291 -0.183411 0.704400 -0.000000 0.000000 0.000000 0.000000 0.000000 0.000000 0.000000 -6.662576 9.868334 4.083867 12.636457 12.015379 -49.784010 -1.305116 26.933919 -0.148973 -18.873671 5.835781 -1.075551 0.253388 -0.544569 -0.000000 0.000000 0.000000 0.000000 0.000000 0.000000 0.000000 
3.984466 17.138076 1.836213 13.584130 -25.047912 -0.160555 -7.685505 0.013032 10.033396 -14.371061 -36.348322 -11.335589 -4.210118 -0.864055 -0.114742 -1.084893 -7.185615 10.844974 -1.503800 -0.000000 -40.280700 11.538522 -0.329897 -5.700967 -11.272021 -40.127771 3.863647 0.303720 0.317841 4.170086 -5.792150 -33.555971 -0.253587 -6.664000 -0.000001 -44.937400 -2.456669 2.049957 -5.873348 -0.484667 2.312920 -4.006991 -1.391852 2.220560 -1.330874 -6.697448 4.607483 0.839360 -1.814567 -0.249071 2.336344 0.000000 0.000000 0.000000 3.683151 11.367801 -8.042473 -95.334675 -57.844166 54.066789 179.557193 -73.534769 179.895802 9.146994 -1.479081 -0.176507 -0.177397 0.689669 -0.000000 0.000000 0.000000 0.000000 0.000000 0.000000 0.000000 -8.542363 10.290794 4.296266 9.054269 14.472718 -55.968910 -1.593013 18.833047 -0.141508 -18.372854 7.060404 -1.253249 0.278107 -0.562210 -0.000000 0.000000 0.000000 0.000000 0.000000 0.000000 0.000000 
3.983580 17.144634 1.825287 13.755910 -25.348654 -0.169936 -7.774292 -0.038918 9.926756 -14.403805 -36.043537 -11.332534 -4.212779 -0.887333 -0.293872 -1.088541 -7.160416 11.014941 -1.508599 0.000000 -40.035600 11.490329 -0.341640 -5.674376 -11.192211 -39.867221 3.685344 0.306937 0.302239 4.057826 -5.785451 -33.435215 -0.256474 -6.637600 0.000000 -44.893100 -2.219855 2.242875 -5.750518 -0.358183 2.495947 -3.949742 -1.011698 2.397792 -1.264966 -7.884210 5.093464 0.556660 -1.603944 -0.232403 2.263312 0.000000 0.000000 0.000000 2.964079 11.844883 -8.065025 -95.381103 -57.154403 53.396131 179.453190 -73.016341 179.895835 9.249245 -1.476908 -0.177306 -0.167558 0.677813 -0.000000 0.000000 0.000000 0.000000 0.000000 0.000000 0.000000 -10.394099 10.690531 4.513232 5.538636 16.181679 -63.234451 -1.859047 11.424229 -0.131917 -18.082350 8.603818 -1.488622 0.302154 -0.576821 -0.000000 0.000000 0.000000 0.000000 0.000000 0.000000 0.000000 
3.978240 17.152588 1.814753 13.863973 -25.590419 -0.127418 -7.832851 -0.074550 9.840413 -14.380538 -35.752662 -11.370782 -4.216210 -0.910987 -0.473142 -1.096690 -7.180311 11.202420 -1.528000 -0.000000 -39.847400 11.471698 -0.366738 -5.640657 -11.053643 -39.667176 3.508666 0.316345 0.298116 3.868988 -5.776548 -33.332605 -0.232096 -6.631700 -0.000000 -44.782800 -2.101384 2.422937 -5.656739 -0.243498 2.678711 -3.922256 -0.577426 2.570548 -1.271259 -8.880054 5.676267 0.364821 -1.389724 -0.216931 2.217091 0.000000 0.000000 0.000000 2.377494 12.138040 -8.119488 -95.777388 -56.340638 52.960599 179.345830 -72.528202 179.896257 9.274609 -1.525127 -0.181080 -0.154563 0.669963 -0.000000 0.000000 0.000000 0.000000 0.000000 0.000000 0.000000 -12.074421 11.209536 4.716398 2.320776 16.751473 -69.992185 -2.057407 5.345132 -0.123467 -18.340710 9.773147 -1.706249 0.332209 -0.579095 -0.000000 0.000000 0.000000 0.000000 0.000000 0.000000 0.000000 
